<svg width="100" height="81" viewBox="0 0 100 81" fill="none" xmlns="http://www.w3.org/2000/svg">
<path d="M7.72391 34.0404C3.46328 34.0404 0 30.5788 0 26.3202C0 11.8079 11.8136 -2.23851e-05 26.3325 -2.23851e-05H43.8125C48.0698 -2.23851e-05 51.5367 3.46524 51.5367 7.72019C51.5367 11.9788 48.0698 15.4404 43.8125 15.4404H26.3325C20.3314 15.4404 15.4442 20.3217 15.4442 26.3202C15.4442 30.5788 11.9809 34.0404 7.72391 34.0404Z" fill="#E97231"/>
<path d="M91.8723 0.00173818C72.21 0.00173818 56.2142 15.9903 56.2142 35.6469V72.3342C56.2142 76.6674 59.7274 80.179 64.0624 80.179C68.398 80.179 71.9111 76.6674 71.9111 72.3342V35.6469C71.9111 24.6428 80.8664 15.6949 91.8723 15.6949C96.2075 15.6949 99.7207 12.1798 99.7207 7.8465C99.7207 3.51325 96.2075 0.00173818 91.8723 0.00173818Z" fill="#E97231"/>
<path d="M77.9686 45.1981C77.9686 50.1327 81.9691 54.1315 86.9063 54.1315C91.8396 54.1315 95.8403 50.1327 95.8403 45.1981C95.8403 40.2635 91.8396 36.2646 86.9063 36.2646C81.9691 36.2646 77.9686 40.2635 77.9686 45.1981Z" fill="#E97231"/>
<path d="M7.72391 80.4225C3.46328 80.4225 0 76.9572 0 72.7023V62.5876C0 55.6145 2.71222 49.0398 7.63484 44.0696L7.75583 43.9486L7.83411 43.874C12.7782 38.9751 19.3596 36.2674 26.3325 36.2674H35.1598C39.4167 36.2674 42.88 39.7294 42.88 43.9843C42.88 48.2393 39.4167 51.7045 35.1598 51.7045H26.3325C23.6309 51.7045 21.0396 52.7043 19.032 54.5222L18.9645 54.5827L18.5943 54.9421L18.2313 55.3264C16.4338 57.3257 15.4442 59.9051 15.4442 62.5876V72.7023C15.4442 76.9572 11.9809 80.4225 7.72391 80.4225Z" fill="#E97231"/>
</svg>
